<svg xmlns="http://www.w3.org/2000/svg" width="27" height="29" viewBox="0 0 27 29" fill="none">
  <path
    d="M23.2015 15.3074C22.0362 11.3805 18.5231 8.45952 14.2856 8.17086L13.8819 3.82947C14.5347 3.69515 15.0243 3.12068 15.0243 2.42903C15.0243 1.6402 14.383 1 13.5928 1C12.8025 1 12.1612 1.6402 12.1612 2.42903C12.1612 3.12068 12.6508 3.69515 13.3036 3.82947L12.8999 8.17086C8.65953 8.45952 5.14643 11.3776 3.98398 15.3074C2.54668 15.4589 1.42432 16.6736 1.42432 18.1483C1.42432 19.6231 2.54668 20.8378 3.98398 20.9892C5.21228 25.1306 9.04606 28.1515 13.5928 28.1515C18.1395 28.1515 21.9732 25.1306 23.2015 20.9892C24.6388 20.8378 25.7612 19.6231 25.7612 18.1483C25.7612 16.6736 24.6388 15.4589 23.2015 15.3074ZM13.5928 26.7225C8.8485 26.7225 5.00327 22.8841 5.00327 18.1483C5.00327 13.4125 8.8485 9.57416 13.5928 9.57416C18.337 9.57416 22.1823 13.4125 22.1823 18.1483C22.1823 22.8841 18.337 26.7225 13.5928 26.7225ZM19.8917 18.1483C19.8917 18.78 19.3792 19.2915 18.7465 19.2915C18.1137 19.2915 17.6012 18.78 17.6012 18.1483C17.6012 17.5167 18.1137 17.0051 18.7465 17.0051C19.3792 17.0051 19.8917 17.5167 19.8917 18.1483ZM9.58433 18.1483C9.58433 18.78 9.07183 19.2915 8.43907 19.2915C7.80631 19.2915 7.2938 18.78 7.2938 18.1483C7.2938 17.5167 7.80631 17.0051 8.43907 17.0051C9.07183 17.0051 9.58433 17.5167 9.58433 18.1483ZM14.738 18.1483C14.738 18.78 14.2255 19.2915 13.5928 19.2915C12.96 19.2915 12.4475 18.78 12.4475 18.1483C12.4475 17.5167 12.96 17.0051 13.5928 17.0051C14.2255 17.0051 14.738 17.5167 14.738 18.1483Z"
    fill="#01C324" stroke="#01C324" stroke-width="1.5" />
</svg>