<svg xmlns="http://www.w3.org/2000/svg" width="18" height="18" viewBox="0 0 20 20" fill="none">
    <path
        d="M14.1662 10.8334L10.8329 18.3334C10.1698 18.3334 9.53394 18.07 9.0651 17.6011C8.59626 17.1323 8.33287 16.4964 8.33287 15.8334V12.5H3.6162C3.37461 12.5028 3.13532 12.4529 2.91489 12.354C2.69447 12.2551 2.49819 12.1094 2.33965 11.9271C2.18112 11.7448 2.06412 11.5302 1.99675 11.2981C1.92939 11.0661 1.91328 10.8222 1.94954 10.5833L3.09954 3.08335C3.15981 2.68593 3.36168 2.32368 3.66795 2.06334C3.97422 1.80301 4.36426 1.66214 4.7662 1.66668H14.1662M14.1662 10.8334V1.66668M14.1662 10.8334H16.3912C16.8628 10.8417 17.3211 10.6766 17.679 10.3693C18.037 10.0621 18.2696 9.63413 18.3329 9.16668V3.33335C18.2696 2.8659 18.037 2.43793 17.679 2.1307C17.3211 1.82346 16.8628 1.65834 16.3912 1.66668H14.1662"
        stroke="#E45454" stroke-width="1.5" stroke-linecap="round" stroke-linejoin="round" />
</svg>