<svg xmlns="http://www.w3.org/2000/svg" width="15" height="15" viewBox="0 0 15 15" fill="none">
  <path
    d="M10.6961 8.15011L8.05421 14C7.5287 14 7.02471 13.7946 6.65312 13.4289C6.28153 13.0632 6.07277 12.5672 6.07277 12.05V9.45008H2.33445C2.14298 9.45222 1.95331 9.41336 1.77861 9.33619C1.60391 9.25903 1.44834 9.14541 1.32269 9.00321C1.19704 8.861 1.10431 8.69361 1.05092 8.51264C0.997527 8.33166 0.984758 8.14142 1.01349 7.95511L1.92496 2.10521C1.97272 1.79523 2.13272 1.51268 2.37547 1.30963C2.61821 1.10657 2.92735 0.996691 3.24592 1.00023H10.6961M10.6961 8.15011V1.00023M10.6961 8.15011H12.4596C12.8334 8.15661 13.1966 8.02782 13.4803 7.78818C13.764 7.54854 13.9484 7.21473 13.9985 6.85013V2.30021C13.9484 1.93561 13.764 1.6018 13.4803 1.36216C13.1966 1.12252 12.8334 0.993729 12.4596 1.00023H10.6961"
    stroke="#C9C9C9" stroke-width="1.5" stroke-linecap="round" stroke-linejoin="round" />
</svg>