<svg xmlns="http://www.w3.org/2000/svg" width="18" height="18" viewBox="0 0 18 18" fill="none">
  <path
    d="M7.5 3.75L9 2.25M6 12L12 6M9 15.75L10.5 14.25M12.375 14.25C12.8723 14.25 13.3492 14.0525 13.7008 13.7008C14.0525 13.3492 14.25 12.8723 14.25 12.375C14.25 11.8777 14.0525 11.4008 13.7008 11.0492C13.3492 10.6975 12.8723 10.5 12.375 10.5C11.8777 10.5 11.4008 10.6975 11.0492 11.0492C10.6975 11.4008 10.5 11.8777 10.5 12.375C10.5 12.8723 10.6975 13.3492 11.0492 13.7008C11.4008 14.0525 11.8777 14.25 12.375 14.25ZM5.625 7.5C6.12228 7.5 6.59919 7.30246 6.95083 6.95083C7.30246 6.59919 7.5 6.12228 7.5 5.625C7.5 5.12772 7.30246 4.65081 6.95083 4.29917C6.59919 3.94754 6.12228 3.75 5.625 3.75C5.12772 3.75 4.65081 3.94754 4.29917 4.29917C3.94754 4.65081 3.75 5.12772 3.75 5.625C3.75 6.12228 3.94754 6.59919 4.29917 6.95083C4.65081 7.30246 5.12772 7.5 5.625 7.5ZM4.125 15.75C4.62228 15.75 5.09919 15.5525 5.45083 15.2008C5.80246 14.8492 6 14.3723 6 13.875C6 13.3777 5.80246 12.9008 5.45083 12.5492C5.09919 12.1975 4.62228 12 4.125 12C3.62772 12 3.15081 12.1975 2.79917 12.5492C2.44754 12.9008 2.25 13.3777 2.25 13.875C2.25 14.3723 2.44754 14.8492 2.79917 15.2008C3.15081 15.5525 3.62772 15.75 4.125 15.75ZM13.875 6C14.3723 6 14.8492 5.80246 15.2008 5.45083C15.5525 5.09919 15.75 4.62228 15.75 4.125C15.75 3.62772 15.5525 3.15081 15.2008 2.79917C14.8492 2.44754 14.3723 2.25 13.875 2.25C13.3777 2.25 12.9008 2.44754 12.5492 2.79917C12.1975 3.15081 12 3.62772 12 4.125C12 4.62228 12.1975 5.09919 12.5492 5.45083C12.9008 5.80246 13.3777 6 13.875 6Z"
    stroke="white" stroke-width="1.5" stroke-linecap="round" stroke-linejoin="round" />
</svg>