<svg xmlns="http://www.w3.org/2000/svg" width="30" height="30" viewBox="0 3 30 30" fill="none">
    <circle cx="15.5" cy="19" r="10" fill="#FD7702" fill-opacity="0.1"/>
    <path d="M26.0619 15.8084C24.7743 11.4695 20.8927 8.2421 16.2106 7.92316L15.7646 3.12632C16.4858 2.97789 17.0268 2.34316 17.0268 1.57895C17.0268 0.707368 16.3182 0 15.445 0C14.5719 0 13.8633 0.707368 13.8633 1.57895C13.8633 2.34316 14.4042 2.97789 15.1255 3.12632L14.6795 7.92316C9.99427 8.2421 6.1126 11.4663 4.8282 15.8084C3.24011 15.9758 2 17.3179 2 18.9474C2 20.5768 3.24011 21.9189 4.8282 22.0863C6.18536 26.6621 10.4213 30 15.445 30C20.4687 30 24.7047 26.6621 26.0619 22.0863C27.65 21.9189 28.8901 20.5768 28.8901 18.9474C28.8901 17.3179 27.65 15.9758 26.0619 15.8084ZM15.445 28.4211C10.2031 28.4211 5.95443 24.18 5.95443 18.9474C5.95443 13.7147 10.2031 9.47368 15.445 9.47368C20.687 9.47368 24.9357 13.7147 24.9357 18.9474C24.9357 24.18 20.687 28.4211 15.445 28.4211ZM22.4048 18.9474C22.4048 19.6453 21.8386 20.2105 21.1394 20.2105C20.4403 20.2105 19.874 19.6453 19.874 18.9474C19.874 18.2495 20.4403 17.6842 21.1394 17.6842C21.8386 17.6842 22.4048 18.2495 22.4048 18.9474ZM11.0161 18.9474C11.0161 19.6453 10.4498 20.2105 9.75067 20.2105C9.05153 20.2105 8.48526 19.6453 8.48526 18.9474C8.48526 18.2495 9.05153 17.6842 9.75067 17.6842C10.4498 17.6842 11.0161 18.2495 11.0161 18.9474ZM16.7105 18.9474C16.7105 19.6453 16.1442 20.2105 15.445 20.2105C14.7459 20.2105 14.1796 19.6453 14.1796 18.9474C14.1796 18.2495 14.7459 17.6842 15.445 17.6842C16.1442 17.6842 16.7105 18.2495 16.7105 18.9474Z" fill="#FD7702"/>
  </svg>