<svg xmlns="http://www.w3.org/2000/svg" width="18" height="18" viewBox="0 0 18 18" fill="none">
    <g clip-path="url(#clip0_41_2693)">
      <path d="M9 1.5C13.1423 1.5 16.5 4.85775 16.5 9C16.5 13.1423 13.1423 16.5 9 16.5C7.7235 16.5 6.52125 16.1813 5.469 15.6188L1.5 16.5L2.382 12.5325C1.8195 11.4795 1.5 10.2773 1.5 9C1.5 4.85775 4.85775 1.5 9 1.5ZM9 3C5.6865 3 3 5.6865 3 9C3 10.0013 3.2445 10.9635 3.705 11.8245L3.9675 12.315L3.4755 14.5245L5.6865 14.034L6.17625 14.2958C7.03725 14.7563 7.99875 15 9 15C12.3135 15 15 12.3135 15 9C15 5.6865 12.3135 3 9 3ZM9.75 5.25V9H12.75V10.5H8.25V5.25H9.75Z" fill="#969696"/>
    </g>
    <defs>
      <clipPath id="clip0_41_2693">
        <rect width="18" height="18" fill="white"/>
      </clipPath>
    </defs>
  </svg>