<svg xmlns="http://www.w3.org/2000/svg" width="18" height="18" viewBox="0 0 18 18" fill="none">
    <path d="M14.1496 6.72498H8.07461C7.32902 6.72498 6.72461 7.32939 6.72461 8.07498V14.15C6.72461 14.8956 7.32902 15.5 8.07461 15.5H14.1496C14.8952 15.5 15.4996 14.8956 15.4996 14.15V8.07498C15.4996 7.32939 14.8952 6.72498 14.1496 6.72498Z" stroke="#C9C9C9" stroke-width="1.5" stroke-linecap="round" stroke-linejoin="round"/>
    <path d="M4.025 10.775H3.35C2.99196 10.775 2.64858 10.6328 2.39541 10.3796C2.14223 10.1264 2 9.78304 2 9.425V3.35C2 2.99196 2.14223 2.64858 2.39541 2.39541C2.64858 2.14223 2.99196 2 3.35 2H9.425C9.78304 2 10.1264 2.14223 10.3796 2.39541C10.6328 2.64858 10.775 2.99196 10.775 3.35V4.025" stroke="#C9C9C9" stroke-width="1.5" stroke-linecap="round" stroke-linejoin="round"/>
  </svg>