<svg xmlns="http://www.w3.org/2000/svg" width="18" height="18" viewBox="0 0 18 18" fill="none">
    <path d="M3 4.7H4.35H15.15" stroke="#333333" stroke-width="1.5" stroke-linecap="round" stroke-linejoin="round"/>
    <path d="M13.8001 4.7V14.15C13.8001 14.508 13.6579 14.8514 13.4047 15.1046C13.1515 15.3578 12.8081 15.5 12.4501 15.5H5.7001C5.34206 15.5 4.99868 15.3578 4.7455 15.1046C4.49233 14.8514 4.3501 14.508 4.3501 14.15V4.7M6.3751 4.7V3.35C6.3751 2.99196 6.51733 2.64858 6.7705 2.39541C7.02368 2.14223 7.36706 2 7.7251 2H10.4251C10.7831 2 11.1265 2.14223 11.3797 2.39541C11.6329 2.64858 11.7751 2.99196 11.7751 3.35V4.7" stroke="#333333" stroke-width="1.5" stroke-linecap="round" stroke-linejoin="round"/>
    <path d="M7.7251 8.075V12.125" stroke="#333333" stroke-width="1.5" stroke-linecap="round" stroke-linejoin="round"/>
    <path d="M10.425 8.075V12.125" stroke="#333333" stroke-width="1.5" stroke-linecap="round" stroke-linejoin="round"/>
  </svg>