<svg xmlns="http://www.w3.org/2000/svg" width="18" height="18" viewBox="0 0 18 18" fill="none">
    <path d="M8.03837 3.42326H3.34186C2.98598 3.42326 2.64467 3.56464 2.39302 3.81629C2.14137 4.06793 2 4.40924 2 4.76512V14.1581C2 14.514 2.14137 14.8553 2.39302 15.107C2.64467 15.3586 2.98598 15.5 3.34186 15.5H12.7349C13.0908 15.5 13.4321 15.3586 13.6837 15.107C13.9354 14.8553 14.0767 14.514 14.0767 14.1581V9.46164" stroke="#333333" stroke-width="1.5" stroke-linecap="round" stroke-linejoin="round"/>
    <path d="M13.0704 2.41686C13.3373 2.14995 13.6993 2 14.0768 2C14.4543 2 14.8163 2.14995 15.0832 2.41686C15.3501 2.68378 15.5001 3.04579 15.5001 3.42326C15.5001 3.80073 15.3501 4.16274 15.0832 4.42965L8.70936 10.8035L6.02563 11.4744L6.69656 8.7907L13.0704 2.41686Z" stroke="#333333" stroke-width="1.5" stroke-linecap="round" stroke-linejoin="round"/>
  </svg>